# xmcd
#
# Track frame offsets:
#	150
#	21465
#	37612
#	61852
#	78940
#	97390
#	128107
#	141337
#	171152
#	182307
#	200735
#	219410
#	235012
#	245775
#	257782
#
# Disc length: 3720 seconds
#
# Revision: 2
# Processed by: cddbd v1.5.2PL0 Copyright (c) Steve Scherf et al.
# Submitted via: EZCDAudioConverter 2.1.3.1
#
DISCID=d30e860f
DTITLE=Rounder Artists - Allons en Louisiane
DYEAR=1999
DGENRE=Cajun Country
TTITLE0=Geno Delafose - Tit Monde
TTITLE1=Steve Riley and Mamou Playboys - Ca tu dis et ça tu fair sont pas pareil
TTITLE1=s
TTITLE2=Chris Ardoin and Double Clutchin' - Lake Charles Connection
TTITLE3=Beausoleil - Bon Temps Rouler
TTITLE4=Balfa Toujours - Restez, mom et pop, restez
TTITLE5=Nathana and Zydeco Cha Chas - Hey Bébé
TTITLE6=Eddie Lejeune - Jeunes gens de la campagne
TTITLE7=Al Berard and Basin Brothers - Going to the country
TTITLE8=Boozoo Chavis and Magic Sounds - Who Stole My Monkey
TTITLE9=Al Berard and Basin Brothers - Dans la Louisiane
TTITLE10=Geno Delafose and French Rockin' Boogie - Je va's jamais la oir encore
TTITLE11=Bois Sec Ardoin and Balfa Toujours - Allons Danser
TTITLE12=D L Menard - Cajun Saturday Night
TTITLE13=Bruce Daigrepont - La clef de mon coeur
TTITLE14=Li'l Brian and Zydeco Travellers - H-Town Zydeco
EXTD=
EXTT0=
EXTT1=
EXTT2=
EXTT3=
EXTT4=
EXTT5=
EXTT6=
EXTT7=
EXTT8=
EXTT9=
EXTT10=
EXTT11=
EXTT12=
EXTT13=
EXTT14=
PLAYORDER=
